<mxfile host="app.diagrams.net" modified="2024-06-17T01:09:13.550Z" agent="Mozilla/5.0 (Windows NT 10.0; Win64; x64) AppleWebKit/537.36 (KHTML, like Gecko) Chrome/126.0.0.0 Safari/537.36" etag="AMwMRLw80y2hsnyHu6CQ" version="24.5.4" type="device">
  <diagram name="PÃ¡gina-1" id="HL5RcdS8l6SpNOAT0KGM">
    <mxGraphModel dx="1221" dy="608" grid="1" gridSize="10" guides="1" tooltips="1" connect="1" arrows="1" fold="1" page="1" pageScale="1" pageWidth="827" pageHeight="1169" math="0" shadow="0">
      <root>
        <mxCell id="0" />
        <mxCell id="1" parent="0" />
        <mxCell id="lAHYXOHShKfDAzZPcG5O-22" style="edgeStyle=orthogonalEdgeStyle;rounded=0;orthogonalLoop=1;jettySize=auto;html=1;entryX=0.5;entryY=0;entryDx=0;entryDy=0;entryPerimeter=0;exitX=0.5;exitY=1;exitDx=0;exitDy=0;" edge="1" parent="1" source="lAHYXOHShKfDAzZPcG5O-29" target="lAHYXOHShKfDAzZPcG5O-39">
          <mxGeometry relative="1" as="geometry" />
        </mxCell>
        <mxCell id="lAHYXOHShKfDAzZPcG5O-23" value="Message&amp;nbsp;&lt;br&gt;(v1, v2)" style="text;html=1;align=center;verticalAlign=middle;whiteSpace=wrap;rounded=0;" vertex="1" parent="1">
          <mxGeometry x="240" y="230" width="60" height="30" as="geometry" />
        </mxCell>
        <mxCell id="lAHYXOHShKfDAzZPcG5O-24" value="" style="group" vertex="1" connectable="0" parent="1">
          <mxGeometry x="470" y="320" width="78" height="108" as="geometry" />
        </mxCell>
        <mxCell id="lAHYXOHShKfDAzZPcG5O-25" value="" style="sketch=0;points=[[0,0,0],[0.25,0,0],[0.5,0,0],[0.75,0,0],[1,0,0],[0,1,0],[0.25,1,0],[0.5,1,0],[0.75,1,0],[1,1,0],[0,0.25,0],[0,0.5,0],[0,0.75,0],[1,0.25,0],[1,0.5,0],[1,0.75,0]];outlineConnect=0;fontColor=#232F3E;fillColor=#ED7100;strokeColor=#ffffff;dashed=0;verticalLabelPosition=bottom;verticalAlign=top;align=center;html=1;fontSize=12;fontStyle=0;aspect=fixed;shape=mxgraph.aws4.resourceIcon;resIcon=mxgraph.aws4.lambda;" vertex="1" parent="lAHYXOHShKfDAzZPcG5O-24">
          <mxGeometry width="78" height="78" as="geometry" />
        </mxCell>
        <mxCell id="lAHYXOHShKfDAzZPcG5O-26" value="Consumer" style="text;html=1;align=center;verticalAlign=middle;whiteSpace=wrap;rounded=0;" vertex="1" parent="lAHYXOHShKfDAzZPcG5O-24">
          <mxGeometry x="8" y="78" width="70" height="30" as="geometry" />
        </mxCell>
        <mxCell id="lAHYXOHShKfDAzZPcG5O-27" value="" style="group" vertex="1" connectable="0" parent="1">
          <mxGeometry x="260" y="80" width="78" height="108" as="geometry" />
        </mxCell>
        <mxCell id="lAHYXOHShKfDAzZPcG5O-28" value="" style="sketch=0;points=[[0,0,0],[0.25,0,0],[0.5,0,0],[0.75,0,0],[1,0,0],[0,1,0],[0.25,1,0],[0.5,1,0],[0.75,1,0],[1,1,0],[0,0.25,0],[0,0.5,0],[0,0.75,0],[1,0.25,0],[1,0.5,0],[1,0.75,0]];outlineConnect=0;fontColor=#232F3E;fillColor=#ED7100;strokeColor=#ffffff;dashed=0;verticalLabelPosition=bottom;verticalAlign=top;align=center;html=1;fontSize=12;fontStyle=0;aspect=fixed;shape=mxgraph.aws4.resourceIcon;resIcon=mxgraph.aws4.lambda;" vertex="1" parent="lAHYXOHShKfDAzZPcG5O-27">
          <mxGeometry width="78" height="78" as="geometry" />
        </mxCell>
        <mxCell id="lAHYXOHShKfDAzZPcG5O-29" value="Producer" style="text;html=1;align=center;verticalAlign=middle;whiteSpace=wrap;rounded=0;" vertex="1" parent="lAHYXOHShKfDAzZPcG5O-27">
          <mxGeometry x="9" y="78" width="60" height="30" as="geometry" />
        </mxCell>
        <mxCell id="lAHYXOHShKfDAzZPcG5O-30" value="" style="group" vertex="1" connectable="0" parent="1">
          <mxGeometry x="370" y="205" width="66" height="80" as="geometry" />
        </mxCell>
        <mxCell id="lAHYXOHShKfDAzZPcG5O-32" value="" style="sketch=0;outlineConnect=0;fontColor=#232F3E;gradientColor=none;fillColor=#DD344C;strokeColor=none;dashed=0;verticalLabelPosition=bottom;verticalAlign=top;align=center;html=1;fontSize=12;fontStyle=0;aspect=fixed;pointerEvents=1;shape=mxgraph.aws4.filtering_rule;" vertex="1" parent="lAHYXOHShKfDAzZPcG5O-30">
          <mxGeometry x="13" width="40" height="40" as="geometry" />
        </mxCell>
        <mxCell id="lAHYXOHShKfDAzZPcG5O-33" value="Filtering&amp;nbsp;&lt;br&gt;Rule" style="text;html=1;align=center;verticalAlign=middle;whiteSpace=wrap;rounded=0;" vertex="1" parent="lAHYXOHShKfDAzZPcG5O-30">
          <mxGeometry y="50" width="66" height="30" as="geometry" />
        </mxCell>
        <mxCell id="lAHYXOHShKfDAzZPcG5O-34" value="" style="group" vertex="1" connectable="0" parent="1">
          <mxGeometry x="470" y="80" width="78" height="103" as="geometry" />
        </mxCell>
        <mxCell id="lAHYXOHShKfDAzZPcG5O-36" value="" style="sketch=0;points=[[0,0,0],[0.25,0,0],[0.5,0,0],[0.75,0,0],[1,0,0],[0,1,0],[0.25,1,0],[0.5,1,0],[0.75,1,0],[1,1,0],[0,0.25,0],[0,0.5,0],[0,0.75,0],[1,0.25,0],[1,0.5,0],[1,0.75,0]];outlineConnect=0;fontColor=#232F3E;fillColor=#E7157B;strokeColor=#ffffff;dashed=0;verticalLabelPosition=bottom;verticalAlign=top;align=center;html=1;fontSize=12;fontStyle=0;aspect=fixed;shape=mxgraph.aws4.resourceIcon;resIcon=mxgraph.aws4.sqs;" vertex="1" parent="lAHYXOHShKfDAzZPcG5O-34">
          <mxGeometry width="78" height="78" as="geometry" />
        </mxCell>
        <mxCell id="lAHYXOHShKfDAzZPcG5O-37" value="Queue" style="text;html=1;align=center;verticalAlign=middle;whiteSpace=wrap;rounded=0;" vertex="1" parent="lAHYXOHShKfDAzZPcG5O-34">
          <mxGeometry x="9" y="73" width="60" height="30" as="geometry" />
        </mxCell>
        <mxCell id="lAHYXOHShKfDAzZPcG5O-38" value="" style="group" vertex="1" connectable="0" parent="1">
          <mxGeometry x="260" y="320" width="78" height="108" as="geometry" />
        </mxCell>
        <mxCell id="lAHYXOHShKfDAzZPcG5O-39" value="" style="sketch=0;points=[[0,0,0],[0.25,0,0],[0.5,0,0],[0.75,0,0],[1,0,0],[0,1,0],[0.25,1,0],[0.5,1,0],[0.75,1,0],[1,1,0],[0,0.25,0],[0,0.5,0],[0,0.75,0],[1,0.25,0],[1,0.5,0],[1,0.75,0]];outlineConnect=0;fontColor=#232F3E;fillColor=#E7157B;strokeColor=#ffffff;dashed=0;verticalLabelPosition=bottom;verticalAlign=top;align=center;html=1;fontSize=12;fontStyle=0;aspect=fixed;shape=mxgraph.aws4.resourceIcon;resIcon=mxgraph.aws4.eventbridge;" vertex="1" parent="lAHYXOHShKfDAzZPcG5O-38">
          <mxGeometry width="78" height="78" as="geometry" />
        </mxCell>
        <mxCell id="lAHYXOHShKfDAzZPcG5O-40" value="Event Bus" style="text;html=1;align=center;verticalAlign=middle;whiteSpace=wrap;rounded=0;" vertex="1" parent="lAHYXOHShKfDAzZPcG5O-38">
          <mxGeometry x="9" y="78" width="60" height="30" as="geometry" />
        </mxCell>
        <mxCell id="lAHYXOHShKfDAzZPcG5O-41" style="edgeStyle=orthogonalEdgeStyle;rounded=0;orthogonalLoop=1;jettySize=auto;html=1;entryX=0.5;entryY=0;entryDx=0;entryDy=0;entryPerimeter=0;curved=0;" edge="1" parent="1" source="lAHYXOHShKfDAzZPcG5O-37" target="lAHYXOHShKfDAzZPcG5O-25">
          <mxGeometry relative="1" as="geometry" />
        </mxCell>
        <mxCell id="lAHYXOHShKfDAzZPcG5O-42" style="edgeStyle=orthogonalEdgeStyle;rounded=1;orthogonalLoop=1;jettySize=auto;html=1;entryX=0.5;entryY=1;entryDx=0;entryDy=0;strokeColor=default;curved=0;" edge="1" parent="1" source="lAHYXOHShKfDAzZPcG5O-39" target="lAHYXOHShKfDAzZPcG5O-33">
          <mxGeometry relative="1" as="geometry" />
        </mxCell>
        <mxCell id="lAHYXOHShKfDAzZPcG5O-43" style="edgeStyle=orthogonalEdgeStyle;rounded=1;orthogonalLoop=1;jettySize=auto;html=1;curved=0;flowAnimation=0;" edge="1" parent="1" source="lAHYXOHShKfDAzZPcG5O-32" target="lAHYXOHShKfDAzZPcG5O-36">
          <mxGeometry relative="1" as="geometry">
            <Array as="points">
              <mxPoint x="403" y="120" />
            </Array>
          </mxGeometry>
        </mxCell>
      </root>
    </mxGraphModel>
  </diagram>
</mxfile>
